<?xml version="1.0" standalone="no"?>
<!DOCTYPE svg PUBLIC "-//W3C//DTD SVG 20010904//EN"
 "http://www.w3.org/TR/2001/REC-SVG-20010904/DTD/svg10.dtd">
<svg version="1.0" xmlns="http://www.w3.org/2000/svg"
 width="512.000000pt" height="512.000000pt" viewBox="0 0 512.000000 512.000000"
 preserveAspectRatio="xMidYMid meet">
<metadata>
Created by potrace 1.14, written by Peter Selinger 2001-2017
</metadata>
<g transform="translate(0.000000,512.000000) scale(0.100000,-0.100000)"
fill="#000000" stroke="none">
<path d="M2440 5114 c-25 -2 -82 -9 -128 -15 -69 -9 -82 -14 -78 -28 24 -78
76 -279 76 -293 0 -11 -12 -18 -42 -23 -70 -12 -239 -70 -319 -110 -338 -170
-594 -461 -710 -807 -52 -155 -69 -263 -76 -490 l-6 -208 166 0 167 0 0 -165
0 -165 -165 0 -165 0 0 -910 0 -910 140 0 c136 0 142 -1 165 -25 l25 -24 0
-306 0 -305 -245 0 -245 0 0 -139 c0 -197 -15 -185 234 -189 l196 -3 30 30 30
29 0 136 0 136 1075 0 1075 0 0 -130 c0 -139 8 -171 47 -189 14 -7 92 -11 199
-11 182 0 223 8 238 45 3 9 6 77 6 151 l0 134 -245 0 -245 0 0 308 c0 301 1
309 21 328 18 16 42 20 163 24 l141 5 0 905 0 905 -162 3 -163 2 0 165 0 165
167 0 166 0 -7 193 c-3 106 -13 234 -21 285 -88 542 -509 999 -1036 1124 -52
12 -95 23 -97 24 -2 1 16 72 39 158 23 86 40 158 38 160 -17 17 -349 39 -449
30z m395 -689 c371 -94 669 -392 771 -770 23 -89 27 -124 31 -307 l5 -208
-427 0 -427 0 27 31 c135 161 87 410 -99 508 -133 70 -290 40 -395 -75 -60
-65 -86 -133 -85 -224 0 -73 35 -164 81 -212 l27 -28 -428 0 -428 0 5 213 c6
258 24 342 112 517 158 316 477 542 820 581 116 13 305 1 410 -26z m446 -1974
l29 -29 0 -466 c0 -454 0 -465 20 -471 28 -9 60 -53 60 -84 0 -32 -31 -68 -65
-77 -16 -4 -25 -13 -25 -26 0 -40 -32 -144 -65 -213 -95 -196 -277 -347 -485
-402 -80 -21 -271 -24 -350 -4 -83 20 -228 93 -295 148 -122 99 -225 264 -261
417 -14 61 -21 76 -36 76 -11 0 -30 11 -43 25 -45 44 -25 121 35 140 20 6 20
13 20 468 0 500 -1 495 54 517 11 5 326 9 699 9 l679 1 29 -29z"/>
<path d="M2675 1850 l300 -300 3 102 3 102 -198 198 -198 198 -105 0 -105 0
300 -300z"/>
<path d="M2895 2070 c44 -44 81 -80 82 -80 2 0 3 23 3 51 0 43 -5 55 -29 80
-25 25 -37 29 -82 29 l-54 0 80 -80z"/>
<path d="M2161 2102 c-6 -11 -11 -47 -11 -79 l0 -58 383 -383 c210 -210 385
-382 389 -382 6 0 48 102 48 116 0 2 -11 9 -25 14 -14 6 -32 25 -40 42 -8 19
-167 186 -373 392 -331 330 -361 357 -371 338z"/>
<path d="M2150 1640 l0 -95 270 -270 269 -269 51 24 c28 13 55 29 60 35 6 7
-97 117 -320 340 l-330 330 0 -95z"/>
<path d="M2165 1290 c16 -56 70 -142 117 -186 43 -40 173 -113 183 -102 2 2
-66 73 -151 158 -104 104 -154 147 -149 130z"/>
</g>
</svg>
